<svg height="464pt" viewBox="0 0 464 464" width="464pt" xmlns="http://www.w3.org/2000/svg"><path d="m166 320-117.777344 134.601562c-5.222656 5.972657-12.773437 9.398438-20.710937 9.398438-15.195313 0-27.511719-12.316406-27.511719-27.511719 0-7.9375 3.425781-15.488281 9.398438-20.710937l132.847656-116zm0 0" fill="#a75b25"/><path d="m232 112 27.144531-27.144531c54.328125-54.332031 128.019531-84.855469 204.855469-84.855469 0 76.835938-30.523438 150.527344-84.855469 204.855469l-27.144531 27.144531c35.855469 0 70.246094 14.246094 95.601562 39.601562l16.398438 16.398438-16.398438 16.398438c-25.355468 25.355468-59.746093 39.601562-95.601562 39.601562h-48c30.734375 30.734375 48 72.417969 48 115.878906v4.121094h-49.519531c-35.203125-.003906-69.292969-12.34375-96.335938-34.878906-34.304687-28.59375-54.140625-70.941406-54.144531-115.601563v-1.519531h-1.519531c-44.660157-.003906-87.007813-19.839844-115.601563-54.144531-22.535156-27.042969-34.87499975-61.132813-34.878906-96.335938v-41.519531h4.121094c43.460937 0 85.144531 17.265625 115.878906 48v-56c0-35.855469 14.246094-70.246094 39.601562-95.601562l16.398438-16.398438 16.398438 16.398438c25.355468 25.355468 39.601562 59.746093 39.601562 95.601562zm0 0" fill="#f7ce49"/><path d="m352 232 27.144531-27.144531c54.332031-54.328125 84.855469-128.019531 84.855469-204.855469-18.695312.0078125-37.34375 1.824219-55.6875 5.425781-19.785156 136.496094-136.789062 237.765625-274.710938 237.773438-43.101562.042969-85.617187-9.996094-124.144531-29.320313 21.828125 59.007813 78.109375 98.164063 141.023438 98.121094h1.519531v1.519531c.003906 44.660157 19.839844 87.007813 54.144531 115.601563 27.042969 22.535156 61.132813 34.875 96.335938 34.878906h49.519531v-4.121094c0-43.460937-17.265625-85.144531-48-115.878906h48c35.855469 0 70.246094-14.246094 95.601562-39.601562l16.398438-16.398438-16.398438-16.398438c-25.355468-25.355468-59.746093-39.601562-95.601562-39.601562zm0 0" fill="#dd9e25"/><path d="m376 280h-180.6875l170.34375-170.34375-11.3125-11.3125-170.34375 170.34375v-180.6875h-16v180.6875l-82.34375-82.34375-11.3125 11.3125 90.34375 90.34375-10.34375 10.34375 11.3125 11.3125 10.34375-10.34375 90.34375 90.34375 11.3125-11.3125-82.34375-82.34375h180.6875zm0 0" fill="#a75b25"/></svg>