<svg height="512pt" viewBox="0 -1 512.00054 512" width="512pt" xmlns="http://www.w3.org/2000/svg"><path d="m509.242188 176.460938c-3.28125-4.621094-8.890626-7-14.484376-6.140626l-79.28125 12.128907-1.222656-24.058594c-.285156-5.628906-3.707031-10.617187-8.847656-12.914063-5.140625-2.300781-11.140625-1.519531-15.523438 2.019532l-47.0625 38.007812 6.019532-106.550781c.316406-5.601563-2.527344-10.914063-7.363282-13.757813-4.835937-2.84375-10.855468-2.746093-15.597656.253907l-20.785156 13.140625-35.351562-70.335938c-2.542969-5.058594-7.71875-8.253906-13.382813-8.253906h-.71875c-5.660156 0-10.839844 3.191406-13.382813 8.253906l-35.351562 70.335938-20.78125-13.140625c-4.742188-3-10.765625-3.097657-15.601562-.253907-4.835938 2.847657-7.675782 8.15625-7.363282 13.757813l6.019532 106.550781-47.0625-38.007812c-4.378907-3.539063-10.378907-4.320313-15.523438-2.019532-5.140625 2.296876-8.558594 7.285157-8.847656 12.914063l-1.222656 24.058594-79.28125-12.128907c-5.597657-.859374-11.203126 1.519532-14.480469 6.140626-3.277344 4.621093-3.667969 10.699218-1.007813 15.699218l36.683594 68.953125-21.320312 8.1875c-5.359376 2.058594-9.070313 6.996094-9.554688 12.714844-.488281 5.71875 2.335938 11.210937 7.269531 14.144531l119.015625 70.777344-18.4375 40.414062c-2.117187 4.640626-1.730468 10.03125 1.027344 14.320313 2.753906 4.289063 7.503906 6.878906 12.597656 6.878906h253.925782c5.097656 0 9.84375-2.589843 12.601562-6.878906 2.753906-4.289063 3.140625-9.679687 1.027344-14.320313l-18.441406-40.414062 119.019531-70.777344c4.929687-2.933594 7.753906-8.425781 7.269531-14.144531-.488281-5.71875-4.199219-10.65625-9.554688-12.714844l-21.324218-8.1875 36.683594-68.953125c2.664062-5 2.277343-11.078125-1-15.699218zm0 0" fill="#fb8626"/><path d="m509.242188 176.460938c-3.28125-4.621094-8.890626-7-14.484376-6.140626l-79.28125 12.128907-1.222656-24.058594c-.285156-5.628906-3.707031-10.617187-8.847656-12.914063-5.140625-2.300781-11.140625-1.519531-15.523438 2.019532l-47.0625 38.007812 6.019532-106.550781c.316406-5.601563-2.527344-10.914063-7.363282-13.757813-4.835937-2.84375-10.855468-2.746093-15.597656.253907l-20.785156 13.140625-35.351562-70.335938c-2.542969-5.058594-7.71875-8.253906-13.382813-8.253906h-.71875c.71875 0 .359375 428.550781.359375 428.550781h126.964844c5.097656 0 9.84375-2.59375 12.597656-6.878906 2.757812-4.289063 3.144531-9.683594 1.027344-14.320313l-18.4375-40.414062 119.015625-70.777344c4.933593-2.933594 7.757812-8.425781 7.269531-14.144531-.484375-5.71875-4.195312-10.65625-9.554688-12.714844l-21.320312-8.1875 36.683594-68.953125c2.660156-5 2.273437-11.078125-1.003906-15.699218zm0 0" fill="#b9531c"/><path d="m339.277344 303.867188c-4.582032-6.886719-13.882813-8.757813-20.769532-4.175782l-47.527343 31.613282v-45.1875c0-8.273438-6.707031-14.976563-14.980469-14.976563s-14.980469 6.703125-14.980469 14.976563v45.1875l-47.527343-31.613282c-6.886719-4.582031-16.183594-2.710937-20.769532 4.175782-4.578125 6.886718-2.710937 16.1875 4.179688 20.765624l64.117187 42.652344v128.394532c0 8.273437 6.707031 14.976562 14.980469 14.976562s14.980469-6.703125 14.980469-14.976562v-128.394532l64.121093-42.652344c6.886719-4.578124 8.757813-13.878906 4.175782-20.765624zm0 0" fill="#9c4716"/><path d="m339.277344 303.867188c-4.582032-6.886719-13.882813-8.757813-20.769532-4.175782l-47.527343 31.613282v-45.1875c0-8.273438-6.707031-14.976563-14.980469-14.976563v239.515625c8.273438 0 14.980469-6.707031 14.980469-14.976562v-128.394532l64.121093-42.652344c6.886719-4.578124 8.757813-13.878906 4.175782-20.765624zm0 0" fill="#75362a"/></svg>