<svg id="Capa_1" enable-background="new 0 0 512 512" height="512" viewBox="0 0 512 512" width="512" xmlns="http://www.w3.org/2000/svg"><g><path d="m512 211h-60v-39.58l-116.298 57.583 29.942-179.59-72.305 36.152-37.339-85.565-37.339 85.565-72.305-36.152 29.942 179.59-116.298-57.583v39.58h-60l36.079 72.085-36.079 36.562 121 65.274v105.351l135-67.5 135 67.5v-105.366l121-65.229-36.108-36.533z" fill="#ff9f40"/><path d="m391 384.906 121-65.229-36.108-36.533 36.108-72.144h-60v-39.58l-116.298 57.583 29.942-179.59-72.305 36.152-37.339-85.565v422.772l135 67.5z" fill="#ff7f40"/><path d="m382.709 280.873-111.709 55.855v-155.728h-15-15v155.728l-111.709-55.855-13.418 26.836 125.127 62.563v141.728h15 15v-141.728l125.127-62.563z" fill="#ff7f40"/><path d="m271 370.272 125.127-62.563-13.418-26.836-111.709 55.855v-155.728h-15v331h15z" fill="#f25a3c"/></g></svg>