<?xml version="1.0"?>
<svg xmlns="http://www.w3.org/2000/svg" id="Flat" viewBox="0 0 512 512" width="512" height="512"><path d="M24,312l0,0A119.99989,119.99989,0,0,0,96,336h0l3.00244,27.022A129.01153,129.01153,0,0,0,136,440l0,0,16-24,0,0a178.854,178.854,0,0,0,86.01564,68.25583L248,488l-19.07788-34.34019A90.61463,90.61463,0,0,1,224,376l0,0,23.76688,2.16063A123.73946,123.73946,0,0,1,344,439.99994L344,440l-8-56,17.08857-2.84809A199.67148,199.67148,0,0,0,480,304.00006L480,304l-33.58393,3.35839A140.74275,140.74275,0,0,1,360,288l0,0,24-40-.00006,0A285.8464,285.8464,0,0,1,252.0661,264.45179L248,264l.00006-.00008a276.06524,276.06524,0,0,1,164.69508-98.88026L440,160l-56-32,0-.00006A327.04431,327.04431,0,0,1,487.99994,24L488,24H422.48193A172.57819,172.57819,0,0,0,312.00005,64l0,0-8-32L261.79927,63.65055A82.80343,82.80343,0,0,0,232.17,106.09989l-5.88957,19.63191A82.80328,82.80328,0,0,1,184,176l0,0v0a105.5132,105.5132,0,0,1,12.98738-74.97891L200,96h-1.37261A54.62737,54.62737,0,0,0,160,112l0,0,1.06237-6.37423a150.81924,150.81924,0,0,0-8.735-80.80743L152,24,125.20434,54.14512A147.291,147.291,0,0,0,88,151.99994V152l-24-8,.15536.77681A176.34556,176.34556,0,0,0,96,216l0,0h0a48.28335,48.28335,0,0,1-44.23854-7.17893L40,200l-3.57613,14.30451A79.82716,79.82716,0,0,0,64,296l0,0Z" style="fill:#e88604"/><path d="M224.10205,203.48145c1.314-1.51618,2.65527-3.00373,3.98731-4.501l26.35937-10.54395a464.42934,464.42934,0,0,1,106.68262-28.51709l-2.2627-15.83886a480.464,480.464,0,0,0-103.62134,26.8637,456.98635,456.98635,0,0,1,92.63794-67.95111l-7.7705-13.98632A473.70334,473.70334,0,0,0,265.7063,140.179l13.88306-41.64917-15.17872-5.05958-22.77807,68.33411q-15.45851,14.88144-29.62134,31.19861l-81.50635,94.04572A355.07138,355.07138,0,0,0,143.95117,143.1167l-15.90234,1.7666a339.182,339.182,0,0,1-12.99951,138.00391l-6.438,20.923a110.51318,110.51318,0,0,0-30.95459-61.46692L66.34326,253.65674a94.41467,94.41467,0,0,1,26.53711,53.07471l2.676,18.73065L84.94275,336.51794A218.73643,218.73643,0,0,0,24,487.99988V488H56v-.00012a235.20949,235.20949,0,0,1,48.77686-143.40973l6.39-8.30713,4.64368,1.8576a86.0132,86.0132,0,0,1,45.03418,41.437l14.31054-7.15528a101.9934,101.9934,0,0,0-53.40234-49.1372l-.44946-.17975,6.91333-8.98731L130.05249,312h4.19116a664.99953,664.99953,0,0,1,144.021,15.80957l3.4707-15.61914a681.15163,681.15163,0,0,0-137.8772-16.11987Z" style="fill:#eb6d3b"/></svg>
