<svg id="Color" enable-background="new 0 0 24 24" height="512" viewBox="0 0 24 24" width="512" xmlns="http://www.w3.org/2000/svg"><path d="m19.09 17.686c.321-.243.62-.503.896-.778 2.826-2.825 3.036-7.096 3.043-7.276.009-.21-.07-.414-.219-.562s-.343-.239-.564-.218c-.124.005-2.642.132-5.086 1.445-.021-5.513-4.449-9.872-4.638-10.055-.291-.283-.754-.283-1.045 0-.188.182-4.616 4.541-4.637 10.054-2.444-1.314-4.962-1.44-5.086-1.445-.235-.024-.414.069-.564.217-.148.149-.227.353-.218.563.007.181.217 4.451 3.043 7.276.275.275.574.535.895.778-1.598.659-2.669 1.629-2.728 1.683-.154.142-.243.342-.243.552s.088.411.242.553c.102.094 2.525 2.291 5.589 2.291 1.683 0 3.172-.656 4.229-1.302 1.058.645 2.547 1.302 4.229 1.302 3.063 0 5.487-2.197 5.589-2.291.154-.142.242-.343.242-.553s-.089-.41-.243-.552c-.057-.054-1.128-1.023-2.726-1.682z" fill="#ffc107"/><path d="m12 24.029c-.414 0-.75-.336-.75-.75v-14.537c0-.414.336-.75.75-.75s.75.336.75.75v14.537c0 .414-.336.75-.75.75z" fill="#6d4c41"/><path d="m11.979 20.66c-.192 0-.384-.073-.53-.22l-3.899-3.899c-.293-.293-.293-.768 0-1.061s.768-.293 1.061 0l3.369 3.369 3.39-3.39c.293-.293.768-.293 1.061 0s.293.768 0 1.06l-3.92 3.92c-.148.148-.339.221-.532.221z" fill="#6d4c41"/><path d="m12 .029c-.188 0-.377.071-.522.212-.189.183-4.617 4.542-4.638 10.055-2.444-1.314-4.962-1.44-5.086-1.445-.024-.003-.048-.004-.071-.004-.201 0-.358.088-.492.221-.149.149-.228.353-.219.563.007.181.217 4.451 3.043 7.276.275.275.574.535.895.778-1.598.659-2.669 1.629-2.728 1.683-.154.142-.243.342-.243.552s.088.411.242.553c.102.094 2.525 2.291 5.589 2.291 1.316 0 2.514-.402 3.479-.885v-1.637l-3.7-3.7c-.293-.293-.293-.768 0-1.061.146-.146.338-.22.53-.22s.384.073.53.22l2.64 2.64v-9.379c0-.414.336-.75.75-.75z" fill="#dea806"/><g fill="#5f4239"><path d="m11.25 20.241v1.637 1.401c0 .342.229.63.542.721h.208v-3.34c-.007 0-.014 0-.021 0-.192 0-.384-.073-.53-.22zm.75-12.249c-.414 0-.75.336-.75.75v9.378l.729.729.021-.02z"/><path d="m8.08 15.261c-.192 0-.384.073-.53.22-.293.293-.293.768 0 1.061l3.7 3.7.199.199c.147.146.338.22.53.22h.021v-1.831l-.021.021-.729-.731-2.64-2.64c-.146-.146-.338-.219-.53-.219z"/></g></svg>