<svg id="Capa_1" enable-background="new 0 0 512 512" height="512" viewBox="0 0 512 512" width="512" xmlns="http://www.w3.org/2000/svg"><g><path d="m512 1.86-31.397 25.036c-42.576 33.948-69.207 73.407-60.838 155.637 5.288 51.992.331 101.094-14.359 142.003-17.329 48.291-47.392 84.95-89.345 108.946-42.977 24.576-82.893 38.009-118.626 39.91-2.83.15-5.629.23-8.399.23-28.879 0-53.683-8.232-72.678-24.086-2.92-2.421-5.7-5.031-8.339-7.822-65.223-65.205-75.528-191.065 30.936-305.682 45.907-49.422 108.38-88.031 180.678-111.636 76.942-25.137 135.944-24.877 152.19-24.206z" fill="#ffd44a"/><path d="m512 1.86-31.397 25.036c-42.576 33.948-69.207 73.407-60.838 155.637 5.288 51.992.331 101.094-14.359 142.003-17.329 48.291-47.392 84.95-89.345 108.946-42.977 24.576-82.893 38.009-118.626 39.91-2.83.15-5.629.23-8.399.23-28.879 0-53.683-8.232-72.678-24.086 158.823-104.975 172.57-399.945 395.642-447.676z" fill="#ffb640"/><path d="m311.996 307.572 23.039 19.314c-55.219 65.435-111.27 74.598-138.313 74.598-2.609 0-4.957-.09-7.004-.22-12.503 14.773-25.397 28.137-38.632 40.049-45.455 40.89-95.135 64.666-147.654 70.687l-1.435-12.453-1.997-17.354c66.959-7.672 121.335-48.311 163.288-96.513-38.793-48.021-33.043-113.287-32.762-116.247l14.991 1.44 14.981 1.4c-.05.57-4.325 51.282 22.306 89.341 15.523-20.465 28.969-41.52 40.338-61.395 2.649-4.621 5.218-9.242 7.706-13.843-40.96-59.804-28.246-117.348-27.664-119.868l14.67 3.381 14.67 3.311c-.03.13-2.86 13.223-.753 32.448 1.886 17.294 6.964 33.798 15.152 49.292 32.14-66.676 47.482-122.469 47.663-123.149l16.216 4.361 12.844 3.461c-.652 2.441-11.861 43.29-35.381 97.413 14.199-3.591 33.093-10.362 53.272-23.165l16.165 25.306c-36.244 23.005-69.026 29.407-84.79 31.187-6.994 14.353-14.75 29.197-23.3 44.17-11.329 19.855-23.159 38.339-35.441 55.383 3.432-.58 7.104-1.37 10.998-2.421 30.696-8.262 60.718-28.977 86.827-59.914z" fill="#b75e49"/><path d="m311.996 307.572 23.039 19.314c-55.219 65.435-111.27 74.598-138.313 74.598-2.609 0-4.957-.09-7.004-.22-12.503 14.773-25.397 28.137-38.632 40.049-45.455 40.89-95.135 64.666-147.654 70.687l-1.435-12.453c186.287-19.675 289.409-304.482 308.805-363.395l12.844 3.461c-.652 2.441-11.861 43.29-35.381 97.413 14.199-3.591 33.093-10.362 53.272-23.165l16.165 25.306c-36.244 23.005-69.026 29.407-84.79 31.187-6.994 14.353-14.75 29.197-23.3 44.17-11.329 19.855-23.159 38.339-35.441 55.383 3.432-.58 7.104-1.37 10.998-2.421 30.696-8.262 60.718-28.977 86.827-59.914z" fill="#993f33"/></g></svg>